<?xml version="1.0" encoding="UTF-8"?><svg id="a" xmlns="http://www.w3.org/2000/svg" viewBox="0 0 1024 1024"><defs><style>.b{fill:#fefefe;}.b,.c,.d{stroke-width:0px;}.c{fill:#fff;}.d{fill:#5da9e9;}</style></defs><rect class="d" x="0" width="1024" height="1024"/><path class="b" d="M199.14,523.3c13.54-20.95,29.9-39.56,44.75-59.3,16.6-22.07,34.34-43.21,51.04-65.19,15.19-19.99,31.07-39.46,47.21-58.72,10.54-12.58,20.7-25.48,31.67-37.72,5.55-6.19,12.52-8.33,20.29-7.93,12.56.65,25.12,2.05,37.33,5.03,20.42,4.98,37.64-1.03,53.12-14.08,9.37-7.9,16.43-17.99,25.15-26.49,16.31-15.9,31.92-32.55,50.46-46.03,12.86-9.35,27.53-10.39,42.63-10.33,23,.09,39.68,12.04,54.37,28.15,15.49,16.99,30.38,34.49,45.34,51.94,16.46,19.22,32.11,39.11,48.72,58.23,16.58,19.09,32.27,38.97,48.65,58.27,7.66,9.03,15.41,17.97,23.23,26.86,1.19,1.35,2.16,2.59,1.61,4.96-6.63-2.49-12.13-6.66-17.87-10.32-15.1-9.64-29.9-19.77-45.21-29.04-25.38-15.38-50.73-30.88-76.78-45.08-14-7.63-28.45-15.11-44.03-19.22-11.18-2.95-22.67-4.36-34.29-.64-17.35,5.55-23.29,20.49-26.26,38.44,2.27,10.86.97,11.39-4.43,9.27-7.49-2.94-13.53-8.19-20.53-11.91-28.37-15.05-57.22-18.37-87.85-6.88-23.65,8.87-45.19,21.32-64.77,36.78-17.24,13.6-34.57,27.19-50.43,42.53-9.31,9-20.59,15.42-32,21.58-22.08,11.91-43.86,24.37-65.92,36.31-16.99,9.2-33.46,19.27-50,29.21-1.51.91-2.83,2.09-5.17,1.33Z"/><path class="c" d="M239.56,602.54l10.58,44.19,12.67-44.19h14.56l12.57,44.3,10.79-44.3h15.81l-18.01,72.47h-14.56l-13.93-45.03-14.45,45.03h-14.45l-17.59-72.47h16.02Z"/><path class="c" d="M339.88,597.62v24.92c3.77-3.67,8.8-5.55,14.87-5.55,11.21,0,18.85,6.39,18.85,22.1v35.92h-14.24v-34.24c0-7.64-3.67-10.47-9.43-10.47-3.87,0-7.64,1.36-10.05,6.91v37.8h-14.14v-72.57l14.14-4.82Z"/><path class="c" d="M390.57,623.07c4.29-3.14,11.1-6.07,20.63-6.07,13.2,0,22.52,5.45,22.52,22.62v35.4h-12.99v-3.04c-4.29,2.41-9.22,3.77-14.56,3.77-11.1,0-19.9-5.76-19.9-18.12s8.9-18.95,21.36-18.95c4.08,0,8.27.73,12.15,2.09v-.21c0-7.96-3.56-10.26-10.05-10.26-5.55,0-9.95,1.57-13.51,3.98l-5.65-11.21ZM419.79,662.24v-12.36c-2.83-.73-5.86-1.15-8.69-1.15-6.28,0-11.52,2.2-11.52,8.06,0,5.45,4.71,7.44,9.95,7.44,3.35,0,7.02-.84,10.26-1.99Z"/><path class="c" d="M449.64,618.36v-14.77l14.24-4.82v19.58h12.67v11.52h-12.67v27.12c0,3.14,1.57,4.82,5.45,4.82,3.25,0,5.45-1.05,7.54-2.93l-2.3,12.46c-2.2,2.51-6.91,4.19-11.31,4.19-7.44,0-13.61-4.92-13.61-15.18v-30.47h-6.6v-11.52h6.6Z"/><path class="c" d="M499.69,601.29l-11.41,25.45-7.96-2.62,5.86-27.33,13.51,4.5Z"/><path class="c" d="M542.32,635.43c-3.98-3.46-10.26-5.86-16.34-5.86-5.34,0-7.02,1.88-7.02,3.88,0,1.78,1.26,3.04,3.56,4.08,3.56,1.68,12.25,3.98,18.01,7.12,5.65,3.14,8.27,6.91,8.27,13.61,0,14.24-11.94,18.12-22.93,18.12s-19.27-3.46-23.35-7.02l5.24-11.83c4.19,3.14,11.1,5.86,18.22,5.86,5.45,0,8.8-1.68,8.8-5.03,0-2.3-1.57-3.46-5.24-4.92-4.29-1.68-12.46-4.4-16.86-6.7-4.08-2.2-7.85-5.86-7.85-12.88,0-11.42,9.74-16.86,21.99-16.86,9.01,0,16.44,3.04,20.42,6.39l-4.92,12.04Z"/><path class="c" d="M638.98,602.54v14.14h-20.73v58.33h-15.29v-58.33h-20.84v-14.14h56.86Z"/><path class="c" d="M663.27,597.62v24.92c3.77-3.67,8.8-5.55,14.87-5.55,11.21,0,18.85,6.39,18.85,22.1v35.92h-14.24v-34.24c0-7.64-3.67-10.47-9.42-10.47-3.88,0-7.64,1.36-10.05,6.91v37.8h-14.14v-72.57l14.14-4.82Z"/><path class="c" d="M713.96,623.07c4.29-3.14,11.1-6.07,20.63-6.07,13.19,0,22.51,5.45,22.51,22.62v35.4h-12.99v-3.04c-4.29,2.41-9.22,3.77-14.56,3.77-11.1,0-19.9-5.76-19.9-18.12s8.9-18.95,21.36-18.95c4.08,0,8.27.73,12.15,2.09v-.21c0-7.96-3.56-10.26-10.05-10.26-5.55,0-9.95,1.57-13.51,3.98l-5.65-11.21ZM743.18,662.24v-12.36c-2.83-.73-5.86-1.15-8.69-1.15-6.28,0-11.52,2.2-11.52,8.06,0,5.45,4.71,7.44,9.95,7.44,3.35,0,7.02-.84,10.26-1.99Z"/><path class="c" d="M773.03,618.36v-14.77l14.24-4.82v19.58h12.67v11.52h-12.67v27.12c0,3.14,1.57,4.82,5.45,4.82,3.25,0,5.45-1.05,7.54-2.93l-2.3,12.46c-2.2,2.51-6.91,4.19-11.31,4.19-7.43,0-13.61-4.92-13.61-15.18v-30.47h-6.6v-11.52h6.6Z"/><path class="c" d="M257.41,740.03l25.47,56.07,25.47-56.07h18.31v88.58h-18.69v-45.7l-21.63,45.7h-7.94l-21.63-46.34v46.34h-18.69v-88.58h19.33Z"/><path class="c" d="M402.44,794.05c0,23.68-12.42,36.23-29.95,36.23s-29.83-12.54-29.83-36.23,12.42-36.35,29.83-36.35,29.95,12.54,29.95,36.35ZM359.04,794.18c0,13.31,5.38,20.22,13.44,20.22s13.57-6.91,13.57-20.22-5.5-20.48-13.57-20.48-13.44,6.91-13.44,20.48Z"/><path class="c" d="M435.84,759.36v43.52c0,7.81,5.12,11.14,11.65,11.14,4.61,0,9.09-1.66,12.16-8.32v-46.34h17.41v69.25h-16.26v-6.14c-4.86,5.25-11.39,7.81-19.33,7.81-13.7,0-22.91-7.81-22.91-24.32v-46.59h17.28Z"/><path class="c" d="M512.26,759.36v6.27c4.86-5.25,11.26-7.94,19.33-7.94,13.7,0,23.04,7.81,23.04,27.01v43.91h-17.41v-41.86c0-9.34-4.48-12.8-11.52-12.8-4.74,0-9.34,1.66-12.29,8.45v46.21h-17.28v-69.25h16.13Z"/><path class="c" d="M573.95,759.36v-18.05l17.41-5.89v23.94h15.49v14.08h-15.49v33.15c0,3.84,1.92,5.89,6.66,5.89,3.97,0,6.66-1.28,9.22-3.58l-2.82,15.23c-2.69,3.07-8.45,5.12-13.83,5.12-9.09,0-16.64-6.02-16.64-18.56v-37.25h-8.06v-14.08h8.06Z"/><path class="c" d="M620.93,765.12c5.25-3.84,13.57-7.42,25.22-7.42,16.13,0,27.52,6.66,27.52,27.65v43.27h-15.87v-3.71c-5.25,2.94-11.26,4.61-17.79,4.61-13.57,0-24.32-7.04-24.32-22.15s10.88-23.17,26.11-23.17c4.99,0,10.11.9,14.85,2.56v-.26c0-9.73-4.35-12.54-12.29-12.54-6.78,0-12.16,1.92-16.51,4.86l-6.91-13.7ZM656.64,812.99v-15.1c-3.46-.9-7.17-1.41-10.62-1.41-7.68,0-14.08,2.69-14.08,9.86,0,6.66,5.76,9.09,12.16,9.09,4.1,0,8.58-1.02,12.54-2.43Z"/><path class="c" d="M710.4,741.31c0,5.63-3.97,9.6-9.47,9.6s-9.34-3.97-9.34-9.6,3.84-9.6,9.34-9.6,9.47,3.97,9.47,9.6ZM709.63,759.36v69.25h-17.28v-69.25h17.28Z"/><path class="c" d="M744.83,759.36v6.27c4.86-5.25,11.26-7.94,19.33-7.94,13.7,0,23.04,7.81,23.04,27.01v43.91h-17.41v-41.86c0-9.34-4.48-12.8-11.52-12.8-4.74,0-9.34,1.66-12.29,8.45v46.21h-17.28v-69.25h16.13Z"/></svg>