<?xml version="1.0" encoding="UTF-8"?><svg id="a" xmlns="http://www.w3.org/2000/svg" viewBox="0 0 1024 1024"><defs><style>.b{fill:#5da9e9;stroke-width:0px;}</style></defs><path class="b" d="M121.78,648.37c16.89-26.13,37.29-49.35,55.81-73.97,20.71-27.52,42.83-53.9,63.66-81.3,18.95-24.93,38.75-49.22,58.89-73.24,13.15-15.69,25.82-31.78,39.49-47.04,6.92-7.72,15.62-10.39,25.31-9.89,15.67.81,31.33,2.56,46.56,6.28,25.47,6.21,46.94-1.28,66.26-17.56,11.68-9.85,20.49-22.44,31.36-33.04,20.34-19.83,39.81-40.6,62.93-57.41,16.04-11.66,34.33-12.95,53.17-12.88,28.69.11,49.49,15.02,67.81,35.11,19.32,21.19,37.89,43.02,56.55,64.79,20.54,23.97,40.05,48.78,60.76,72.62,20.68,23.81,40.25,48.61,60.68,72.67,9.56,11.26,19.22,22.42,28.98,33.5,1.48,1.68,2.7,3.23,2.01,6.19-8.27-3.1-15.13-8.3-22.29-12.88-18.83-12.02-37.29-24.65-56.39-36.23-31.66-19.18-63.27-38.52-95.76-56.23-17.47-9.52-35.48-18.85-54.91-23.97-13.95-3.68-28.27-5.44-42.77-.8-21.64,6.92-29.05,25.56-32.75,47.94,2.83,13.54,1.21,14.21-5.53,11.57-9.34-3.67-16.87-10.22-25.61-14.86-35.39-18.77-71.37-22.91-109.57-8.58-29.5,11.07-56.36,26.6-80.79,45.87-21.5,16.96-43.12,33.92-62.9,53.04-11.61,11.22-25.68,19.23-39.92,26.91-27.54,14.86-54.71,30.39-82.22,45.29-21.19,11.47-41.73,24.03-62.37,36.44-1.88,1.13-3.53,2.6-6.45,1.66Z"/><path class="b" d="M360.05,639.04l15.15,63.3,18.15-63.3h20.85l18,63.45,15.45-63.45h22.65l-25.8,103.8h-20.85l-19.95-64.5-20.7,64.5h-20.7l-25.2-103.8h22.95Z"/><path class="b" d="M559.25,639.04v20.25h-29.7v83.55h-21.9v-83.55h-29.85v-20.25h81.45Z"/><path class="b" d="M597.2,639.04l29.85,65.7,29.85-65.7h21.45v103.8h-21.9v-53.55l-25.35,53.55h-9.3l-25.35-54.3v54.3h-21.9v-103.8h22.65Z"/></svg>